<?xml version="1.0" standalone="no"?>
<!DOCTYPE svg PUBLIC "-//W3C//DTD SVG 20010904//EN"
 "http://www.w3.org/TR/2001/REC-SVG-20010904/DTD/svg10.dtd">
<svg version="1.0" xmlns="http://www.w3.org/2000/svg"
 width="1280.000000pt" height="1280.000000pt" viewBox="0 0 1280.000000 1280.000000"
 preserveAspectRatio="xMidYMid meet">
<metadata>
Created by potrace 1.16, written by Peter Selinger 2001-2019
</metadata>
<g transform="translate(0.000000,1280.000000) scale(0.100000,-0.100000)"
fill="#000000" stroke="none">
<path d="M6201 10779 c-539 -37 -999 -242 -1357 -605 -325 -329 -509 -722
-575 -1229 -15 -115 -15 -493 0 -610 85 -653 384 -1151 900 -1498 372 -250
875 -371 1398 -337 572 38 1010 227 1378 595 283 283 466 623 549 1020 37 177
49 307 49 525 0 218 -12 348 -49 525 -83 397 -266 737 -549 1020 -365 365
-808 557 -1370 595 -167 11 -196 11 -374 -1z"/>
<path d="M6065 5553 c-131 -6 -450 -34 -600 -54 -611 -80 -1229 -240 -1870
-484 -316 -120 -711 -293 -830 -362 -418 -244 -703 -632 -795 -1083 -35 -171
-41 -352 -38 -1110 l3 -725 4465 0 4465 0 0 820 c0 812 0 821 -23 950 -80 450
-321 821 -697 1074 -119 79 -218 129 -500 249 -783 333 -1568 564 -2255 661
-418 59 -895 83 -1325 64z"/>
</g>
</svg>
